HIERARCHY
ROOT Hips
{
	OFFSET 0.00000 0.00000 0.00000
	CHANNELS 6 Xposition Yposition Zposition Zrotation Yrotation Xrotation 
	JOINT LHipJoint
	{
		OFFSET 0 0 0
		CHANNELS 3 Zrotation Yrotation Xrotation
		JOINT LeftHip
		{
			OFFSET 1.46561 -1.72757 0.83774
			CHANNELS 3 Zrotation Yrotation Xrotation
			JOINT LeftKnee
			{
				OFFSET 2.48915 -6.83890 0.00000
				CHANNELS 3 Zrotation Yrotation Xrotation
				JOINT LeftAnkle
				{
					OFFSET 2.60555 -7.15868 0.00000
					CHANNELS 3 Zrotation Yrotation Xrotation
					JOINT LeftToe
					{
						OFFSET 0.19248 -0.52884 2.26738
						CHANNELS 3 Zrotation Yrotation Xrotation
						End Site
						{
							OFFSET 0.00000 -0.00000 1.17015
						}
					}
				}
			}
		}
	}
	JOINT RHipJoint
	{
		OFFSET 0 0 0
		CHANNELS 3 Zrotation Yrotation Xrotation
		JOINT RightHip
		{
			OFFSET -1.46918 -1.72757 0.83774
			CHANNELS 3 Zrotation Yrotation Xrotation
			JOINT RightKnee
			{
				OFFSET -2.49034 -6.84216 0.00000
				CHANNELS 3 Zrotation Yrotation Xrotation
				JOINT RightAnkle
				{
					OFFSET -2.65971 -7.30750 0.00000
					CHANNELS 3 Zrotation Yrotation Xrotation
					JOINT RightToe
					{
						OFFSET -0.19227 -0.52827 2.30785
						CHANNELS 3 Zrotation Yrotation Xrotation
						End Site
						{
							OFFSET -0.00000 -0.00000 1.18972
						}
					}
				}
			}
		}
	}
	JOINT lowerback
	{
		OFFSET 0 0 0
		CHANNELS 3 Zrotation Yrotation Xrotation
		JOINT Chest
		{
			OFFSET 0.02432 2.19909 -0.28000
			CHANNELS 3 Zrotation Yrotation Xrotation
			JOINT Chest2
			{
				OFFSET 0.03714 2.21816 -0.15261
				CHANNELS 3 Zrotation Yrotation Xrotation
				JOINT lowerneck
				{
					OFFSET 0 0 0
					CHANNELS 3 Zrotation Yrotation Xrotation
					JOINT Neck
					{
						OFFSET -0.01896 1.56165 0.21681
						CHANNELS 3 Zrotation Yrotation Xrotation
						JOINT Head
						{
							OFFSET 0.02744 1.56009 0.06764
							CHANNELS 3 Zrotation Yrotation Xrotation
							End Site
							{
								OFFSET 0.01212 1.60574 0.00298
							}
						}
					}
				}
				JOINT LeftCollar
				{
					OFFSET 0 0 0
					CHANNELS 3 Zrotation Yrotation Xrotation
					JOINT LeftShoulder
					{
						OFFSET 3.05595 1.48048 -0.60794
CHANNELS 3 Zrotation Xrotation Yrotation
						JOINT LeftElbow
						{
OFFSET 0 -5.206070 -0.000000
CHANNELS 3 Zrotation Xrotation Yrotation
							JOINT LeftWrist
							{
OFFSET 0 -3.399610 0.000000
CHANNELS 3 Zrotation Xrotation Yrotation
								JOINT lhand
								{
									OFFSET 0 0 0
CHANNELS 3 Zrotation Xrotation Yrotation
									JOINT LFingers
									{
OFFSET 0 -0.519690 0.000000
CHANNELS 3 Zrotation Xrotation Yrotation
										End Site
										{
OFFSET 0 -0.418990 0.000000
										}
									}
								}
								JOINT LThumb
								{
OFFSET 0 0.000000 0.000000
CHANNELS 3 Zrotation Xrotation Yrotation
									End Site
									{
OFFSET 0 -0.425390 0.425390
									}
								}
							}
						}
					}
				}
				JOINT RightCollar
				{
					OFFSET 0 0 0
					CHANNELS 3 Zrotation Yrotation Xrotation
					JOINT RightShoulder
					{
						OFFSET -2.99052 1.57608 -0.69102
CHANNELS 3 Zrotation Xrotation Yrotation
						JOINT RightElbow
						{
OFFSET 0 -5.322140 0.000000
CHANNELS 3 Zrotation Xrotation Yrotation
							JOINT RightWrist
							{
OFFSET 0 -3.512080 0.000000
CHANNELS 3 Zrotation Xrotation Yrotation
								JOINT rhand
								{
									OFFSET 0 0 0
CHANNELS 3 Zrotation Xrotation Yrotation
									JOINT RFingers
									{
OFFSET 0 -0.586680 0.000000
CHANNELS 3 Zrotation Xrotation Yrotation
										End Site
										{
OFFSET 0 -0.473000 0.000000
										}
									}
								}
								JOINT RThumb
								{
OFFSET 0 0.000000 0.000000
CHANNELS 3 Zrotation Xrotation Yrotation
									End Site
									{
OFFSET 0 -0.480220 0.480220
									}
								}
							}
						}
					}
				}
			}
		}
	}
}
MOTION
Frames: 9
Frame Time: 0.008333333333333333
1.280705 20.547618 4.015011 0.262174 0.198846 1.735801 0.000000 0.000000 0.000000 -19.644234 1.481393 -30.659677 1.346256 7.339157 20.727102 0.598862 0.316260 14.514185 0.298464 -3.512526 -9.709106 0.000000 0.000000 0.000000 15.565028 6.765181 -27.258650 -1.412703 -7.516517 21.255347 -0.177235 -5.605199 7.901226 -0.152707 -2.517314 6.937750 0.932979 0.118035 4.958889 2.574666 0.190584 3.374327 2.112989 0.084817 0.682615 -2.491458 -0.119842 -7.243678 -1.122066 0.607923 28.906045 0.100166 -0.100101 10.413579 0.000000 0.000000 0.000000 7.869137 0.090251 -31.324917 13.036948 -21.341034 2.466903 23.377798 -23.038518 8.127931 0.000000 0.000000 0.000000 -7.125000 0.000000 0.000000 -2.515155 21.139477 -1.440032 0.000000 0.000000 0.000000 -1.805652 -5.541957 3.211623 -11.645151 -19.270303 -1.983600 -24.172517 49.839094 22.013035 0.000000 0.000000 0.000000 7.125000 0.000000 0.000000 4.922302 53.813457 -1.068571
1.297605 20.318639 4.305920 0.442046 0.149889 1.263844 0.000000 0.000000 0.000000 -20.048358 2.060624 -29.982913 1.157675 6.826230 19.203384 0.649462 0.161777 15.171335 0.311894 -3.590066 -9.926117 0.000000 0.000000 0.000000 15.155150 7.017381 -27.007089 -1.339962 -7.328781 20.693340 -0.212306 -5.631622 8.519658 -0.168666 -2.644604 7.290921 0.948456 0.070420 4.552161 2.579667 0.118564 3.325693 2.112577 0.048901 0.861290 -2.508326 -0.077770 -7.080071 -1.215274 0.696039 29.196253 0.078865 -0.075049 10.490504 0.000000 0.000000 0.000000 8.137788 0.682917 -31.794703 13.290260 -21.710666 2.559842 23.120219 -23.276587 8.008250 0.000000 0.000000 0.000000 -7.125000 0.000000 0.000000 -2.698810 21.286341 -1.536441 0.000000 0.000000 0.000000 -1.842027 -5.173517 3.277677 -11.650635 -19.278571 -1.985430 -24.177252 49.703885 21.995532 0.000000 0.000000 0.000000 7.125000 0.000000 0.000000 4.911922 53.795910 -1.064216
1.314565 20.078908 4.598029 0.624503 0.108454 0.754781 0.000000 0.000000 0.000000 -20.432965 2.636404 -29.275567 1.015242 6.407507 17.972377 0.708260 0.072423 15.877433 0.317185 -3.620211 -10.010577 0.000000 0.000000 0.000000 14.767033 7.216180 -26.732371 -1.287080 -7.188602 20.275394 -0.253851 -5.613452 9.198463 -0.189983 -2.805444 7.737627 0.968069 0.021261 4.133120 2.583888 0.044177 3.274661 2.108554 0.011896 1.044735 -2.537991 -0.034551 -6.931060 -1.301966 0.787487 29.492631 0.062309 -0.049416 10.573156 0.000000 0.000000 0.000000 8.424187 1.252730 -32.251927 13.545212 -22.080540 2.654933 22.851838 -23.502661 7.885224 0.000000 0.000000 0.000000 -7.125000 0.000000 0.000000 -2.890824 21.436832 -1.636192 0.000000 0.000000 0.000000 -1.888725 -4.824106 3.345032 -11.667025 -19.303388 -1.990861 -24.197930 49.546804 21.987524 0.000000 0.000000 0.000000 7.125000 0.000000 0.000000 4.887996 53.791399 -1.058453
1.331311 19.828103 4.890721 0.800777 0.080167 0.205867 0.000000 0.000000 0.000000 -20.775552 3.166714 -28.508622 0.911884 6.083016 17.025966 0.775529 0.075866 16.616211 0.312013 -3.590777 -9.928260 0.000000 0.000000 0.000000 14.414114 7.363906 -26.423131 -1.254246 -7.099962 20.011866 -0.300433 -5.574914 9.913255 -0.215018 -2.983664 8.233325 0.994220 -0.029916 3.711614 2.590086 -0.032914 3.221922 2.102296 -0.026387 1.228142 -2.582354 0.006186 -6.800539 -1.374507 0.875118 29.788123 0.052755 -0.025825 10.659661 0.000000 0.000000 0.000000 8.720987 1.789591 -32.668710 13.796687 -22.443100 2.750144 22.593715 -23.720736 7.775300 0.000000 0.000000 0.000000 -7.125000 0.000000 0.000000 -3.076099 21.571775 -1.732022 0.000000 0.000000 0.000000 -1.943060 -4.494321 3.405477 -11.694083 -19.344275 -1.999808 -24.236152 49.382370 21.986066 0.000000 0.000000 0.000000 7.125000 0.000000 0.000000 4.847989 53.797252 -1.050435
1.347382 19.565567 5.183098 0.964831 0.070945 -0.382485 0.000000 0.000000 0.000000 -21.055735 3.605586 -27.660582 0.842127 5.852675 16.357825 0.847324 0.183704 17.335599 0.300833 -3.526314 -9.747755 0.000000 0.000000 0.000000 14.101696 7.480076 -26.068322 -1.242196 -7.067101 19.914303 -0.348977 -5.543112 10.618762 -0.239353 -3.147839 8.690612 1.022622 -0.084142 3.305920 2.601259 -0.113866 3.165474 2.099186 -0.066571 1.399130 -2.634246 0.042234 -6.697519 -1.439258 0.956573 30.078087 0.046599 -0.005364 10.750053 0.000000 0.000000 0.000000 9.021678 2.281327 -33.026086 14.036831 -22.787088 2.842495 22.371305 -23.937456 7.693341 0.000000 0.000000 0.000000 -7.125000 0.000000 0.000000 -3.236395 21.673785 -1.815098 0.000000 0.000000 0.000000 -2.003173 -4.186672 3.454620 -11.731455 -19.400632 -2.012173 -24.293131 49.231962 21.994304 0.000000 0.000000 0.000000 7.125000 0.000000 0.000000 4.791520 53.817037 -1.040488
1.362252 19.290511 5.474256 1.111815 0.085974 -1.011268 0.000000 0.000000 0.000000 -21.257529 3.915209 -26.724772 0.803335 5.720243 15.974874 0.916426 0.371194 17.973040 0.291615 -3.472630 -9.597519 0.000000 0.000000 0.000000 13.833384 7.585746 -25.656799 -1.252245 -7.094458 19.995583 -0.395776 -5.527940 11.266939 -0.256677 -3.259523 9.002091 1.048507 -0.142053 2.934861 2.619191 -0.199120 3.105852 2.103833 -0.108941 1.547802 -2.694661 0.072073 -6.634454 -1.491040 1.028695 30.351842 0.045654 0.011143 10.842740 0.000000 0.000000 0.000000 9.320554 2.716225 -33.301221 14.262877 -23.108998 2.930629 22.200408 -24.136529 7.629314 0.000000 0.000000 0.000000 -7.125000 0.000000 0.000000 -3.359840 21.753010 -1.878548 0.000000 0.000000 0.000000 -2.069102 -3.906789 3.493837 -11.776533 -19.468637 -2.027178 -24.372505 49.117991 22.006456 0.000000 0.000000 0.000000 7.125000 0.000000 0.000000 4.712961 53.845391 -1.026610
1.375455 19.001997 5.763496 1.236629 0.125053 -1.682031 0.000000 0.000000 0.000000 -21.370213 4.078441 -25.727149 0.797216 5.699014 15.913579 0.974829 0.560815 18.483462 0.288211 -3.452538 -9.541398 0.000000 0.000000 0.000000 13.612645 7.711074 -25.179427 -1.286475 -7.186904 20.270403 -0.436722 -5.535135 11.813107 -0.263311 -3.301196 9.118408 1.065861 -0.202415 2.617468 2.646275 -0.286634 3.042144 2.122102 -0.152599 1.662598 -2.764996 0.094679 -6.618252 -1.524251 1.088428 30.598008 0.051840 0.022840 10.934512 0.000000 0.000000 0.000000 9.618451 3.080599 -33.498322 14.464907 -23.395197 3.010338 22.093081 -24.321247 7.584574 0.000000 0.000000 0.000000 -7.125000 0.000000 0.000000 -3.437351 21.807572 -1.917789 0.000000 0.000000 0.000000 -2.140812 -3.656751 3.523458 -11.825723 -19.542795 -2.043595 -24.467508 49.069013 22.029545 0.000000 0.000000 0.000000 7.125000 0.000000 0.000000 4.621570 53.888297 -1.011473
1.386242 18.699482 6.050234 1.335142 0.186024 -2.396050 0.000000 0.000000 0.000000 -21.402032 4.126581 -24.736170 0.830542 5.813006 16.243125 0.996068 0.465307 18.719533 0.289437 -3.459477 -9.560820 0.000000 0.000000 0.000000 13.445894 7.875665 -24.637708 -1.347908 -7.349290 20.754709 -0.461385 -5.505141 12.130445 -0.247882 -3.200051 8.836500 1.069563 -0.262399 2.372036 2.683222 -0.371847 2.973059 2.157928 -0.195431 1.731802 -2.839938 0.108608 -6.654559 -1.539835 1.132971 30.804021 0.063800 0.029230 11.021560 0.000000 0.000000 0.000000 9.916132 3.372392 -33.613196 14.643548 -23.647086 3.081594 22.042158 -24.464324 7.535835 0.000000 0.000000 0.000000 -7.125000 0.000000 0.000000 -3.473790 21.862888 -1.933858 0.000000 0.000000 0.000000 -2.214838 -3.439484 3.537240 -11.873507 -19.614739 -2.059607 -24.573008 49.107528 22.060741 0.000000 0.000000 0.000000 7.125000 0.000000 0.000000 4.521761 53.942046 -0.995479
1.394353 18.382208 6.333883 1.407488 0.264843 -3.148647 0.000000 0.000000 0.000000 -21.390086 4.149879 -23.857369 0.914940 6.091386 17.050852 0.921167 -0.405802 18.291231 0.293189 -3.481766 -9.623035 0.000000 0.000000 0.000000 13.346606 8.057710 -24.059519 -1.442407 -7.591015 21.479229 -0.451810 -5.190967 11.984887 -0.197351 -2.855845 7.878078 1.055952 -0.318185 2.209535 2.727643 -0.449121 2.892673 2.211062 -0.234693 1.743032 -2.923466 0.110944 -6.730692 -1.526954 1.154802 30.953300 0.085290 0.028040 11.094653 0.000000 0.000000 0.000000 10.221256 3.592098 -33.671043 14.795603 -23.860557 3.142861 22.037560 -24.564818 7.469051 0.000000 0.000000 0.000000 -7.125000 0.000000 0.000000 -3.476343 21.934889 -1.929583 0.000000 0.000000 0.000000 -2.286715 -3.249157 3.533349 -11.915262 -19.677482 -2.073664 -24.674265 49.233016 22.100226 0.000000 0.000000 0.000000 7.125000 0.000000 0.000000 4.428749 54.003799 -0.981636
